{
    "asset" : {
        "generator" : "Khronos glTF Blender I/O v3.3.27",
        "version" : "2.0"
    },
    "extensionsUsed" : [
        "KHR_materials_specular",
        "KHR_materials_ior"
    ],
    "scene" : 0,
    "scenes" : [
        {
            "name" : "Scene",
            "nodes" : [
                1
            ]
        }
    ],
    "nodes" : [
        {
            "mesh" : 0,
            "name" : "leaves"
        },
        {
            "children" : [
                0
            ],
            "mesh" : 1,
            "name" : "tree"
        }
    ],
    "materials" : [
        {
            "doubleSided" : true,
            "extensions" : {
                "KHR_materials_specular" : {
                    "specularColorFactor" : [
                        1.22455347586927,
                        1.22455347586927,
                        1.22455347586927
                    ]
                },
                "KHR_materials_ior" : {
                    "ior" : 1.4500000476837158
                }
            },
            "name" : "Material",
            "pbrMetallicRoughness" : {
                "baseColorFactor" : [
                    0.030536238104104996,
                    0.10223792493343353,
                    0.011005721986293793,
                    1
                ],
                "metallicFactor" : 0,
                "roughnessFactor" : 0.8524590134620667
            }
        },
        {
            "doubleSided" : true,
            "name" : "Material.001",
            "pbrMetallicRoughness" : {
                "baseColorFactor" : [
                    0.049282677471637726,
                    0.03258238360285759,
                    0.017654336988925934,
                    1
                ],
                "metallicFactor" : 0,
                "roughnessFactor" : 0.9098360538482666
            }
        }
    ],
    "meshes" : [
        {
            "name" : "leaves",
            "primitives" : [
                {
                    "attributes" : {
                        "POSITION" : 0,
                        "NORMAL" : 1,
                        "TEXCOORD_0" : 2
                    },
                    "indices" : 3,
                    "material" : 0
                }
            ]
        },
        {
            "name" : "tree",
            "primitives" : [
                {
                    "attributes" : {
                        "POSITION" : 4,
                        "NORMAL" : 5,
                        "TEXCOORD_0" : 6
                    },
                    "indices" : 7,
                    "material" : 1
                }
            ]
        }
    ],
    "accessors" : [
        {
            "bufferView" : 0,
            "componentType" : 5126,
            "count" : 55978,
            "max" : [
                4.068816184997559,
                10.000717163085938,
                4.6179704666137695
            ],
            "min" : [
                -4.652708053588867,
                1.5025643110275269,
                -4.447417736053467
            ],
            "type" : "VEC3"
        },
        {
            "bufferView" : 1,
            "componentType" : 5126,
            "count" : 55978,
            "type" : "VEC3"
        },
        {
            "bufferView" : 2,
            "componentType" : 5126,
            "count" : 55978,
            "type" : "VEC2"
        },
        {
            "bufferView" : 3,
            "componentType" : 5123,
            "count" : 83976,
            "type" : "SCALAR"
        },
        {
            "bufferView" : 4,
            "componentType" : 5126,
            "count" : 27272,
            "max" : [
                3.773984432220459,
                9.849123001098633,
                4.264920234680176
            ],
            "min" : [
                -4.409554958343506,
                0,
                -4.1854705810546875
            ],
            "type" : "VEC3"
        },
        {
            "bufferView" : 5,
            "componentType" : 5126,
            "count" : 27272,
            "type" : "VEC3"
        },
        {
            "bufferView" : 6,
            "componentType" : 5126,
            "count" : 27272,
            "type" : "VEC2"
        },
        {
            "bufferView" : 7,
            "componentType" : 5123,
            "count" : 131400,
            "type" : "SCALAR"
        }
    ],
    "bufferViews" : [
        {
            "buffer" : 0,
            "byteLength" : 671736,
            "byteOffset" : 0,
            "target" : 34962
        },
        {
            "buffer" : 0,
            "byteLength" : 671736,
            "byteOffset" : 671736,
            "target" : 34962
        },
        {
            "buffer" : 0,
            "byteLength" : 447824,
            "byteOffset" : 1343472,
            "target" : 34962
        },
        {
            "buffer" : 0,
            "byteLength" : 167952,
            "byteOffset" : 1791296,
            "target" : 34963
        },
        {
            "buffer" : 0,
            "byteLength" : 327264,
            "byteOffset" : 1959248,
            "target" : 34962
        },
        {
            "buffer" : 0,
            "byteLength" : 327264,
            "byteOffset" : 2286512,
            "target" : 34962
        },
        {
            "buffer" : 0,
            "byteLength" : 218176,
            "byteOffset" : 2613776,
            "target" : 34962
        },
        {
            "buffer" : 0,
            "byteLength" : 262800,
            "byteOffset" : 2831952,
            "target" : 34963
        }
    ],
    "buffers" : [
        {
            "byteLength" : 3094752,
            "uri" : "data:application/octet-stream;base64,"
        }
    ]
}
