{
    "asset": {
        "version": "2.0",
        "generator": "Open Asset Import Library (assimp v5.0.0)"
    },
    "accessors": [
        {
            "bufferView": 0,
            "byteOffset": 0,
            "componentType": 5126,
            "count": 3904,
            "type": "VEC3",
            "max": [
                0.10645584017038346,
                0.004705047234892845,
                1.3808859586715699
            ],
            "min": [
                -0.10881172120571137,
                -0.004705105908215046,
                -0.42208969593048098
            ]
        },
        {
            "bufferView": 1,
            "byteOffset": 0,
            "componentType": 5126,
            "count": 3904,
            "type": "VEC3",
            "max": [
                0.786780059337616,
                1.0,
                0.7063359618186951
            ],
            "min": [
                -0.7222321033477783,
                -1.0,
                -0.7284041047096252
            ]
        },
        {
            "bufferView": 2,
            "byteOffset": 0,
            "componentType": 5126,
            "count": 3904,
            "type": "VEC2",
            "max": [
                0.45204588770866396,
                0.9990234375
            ],
            "min": [
                0.0009765625,
                0.0009765625
            ]
        },
        {
            "bufferView": 3,
            "byteOffset": 0,
            "componentType": 5125,
            "count": 15324,
            "type": "SCALAR",
            "max": [
                3901.0
            ],
            "min": [
                0.0
            ]
        }
    ],
    "buffers": [
        {
            "byteLength": 186224,
            "uri": "comb.bin"
        }
    ],
    "bufferViews": [
        {
            "buffer": 0,
            "byteOffset": 0,
            "byteLength": 46848,
            "target": 34962
        },
        {
            "buffer": 0,
            "byteOffset": 46848,
            "byteLength": 46848,
            "target": 34962
        },
        {
            "buffer": 0,
            "byteOffset": 93696,
            "byteLength": 31232,
            "target": 34962
        },
        {
            "buffer": 0,
            "byteOffset": 124928,
            "byteLength": 61296,
            "target": 34963
        }
    ],
    "images": [
        {
            "uri": "data:image/png;base64,"
        },
        {
            "uri": "data:image/png;base64,"
        }
    ],
    "materials": [
        {
            "name": "comb01 mat",
            "pbrMetallicRoughness": {
                "baseColorTexture": {
                    "index": 0
                },
                "metallicRoughnessTexture": {
                    "index": 1
                },
                "metallicFactor": 0.0
            },
            "doubleSided": true
        },
        {
            "name": "material"
        }
    ],
    "meshes": [
        {
            "name": "Plane",
            "primitives": [
                {
                    "mode": 4,
                    "material": 0,
                    "indices": 3,
                    "attributes": {
                        "POSITION": 0,
                        "NORMAL": 1,
                        "TEXCOORD_0": 2
                    }
                }
            ]
        }
    ],
    "nodes": [
        {
            "name": "Comb 01",
            "mesh": 0
        }
    ],
    "samplers": [
        {
            "magFilter": 9729,
            "minFilter": 9987
        }
    ],
    "scenes": [
        {
            "nodes": [
                0
            ]
        }
    ],
    "textures": [
        {
            "source": 0,
            "sampler": 0
        },
        {
            "source": 1,
            "sampler": 0
        }
    ],
    "scene": 0
}
