{
    "asset": {
        "version": "2.0",
        "generator": "Open Asset Import Library (assimp v5.0.0)"
    },
    "accessors": [
        {
            "bufferView": 0,
            "byteOffset": 0,
            "componentType": 5126,
            "count": 105,
            "type": "VEC3",
            "max": [
                1.0,
                1.0,
                1.0
            ],
            "min": [
                -1.0,
                -1.0,
                -1.0
            ]
        },
        {
            "bufferView": 1,
            "byteOffset": 0,
            "componentType": 5126,
            "count": 105,
            "type": "VEC3",
            "max": [
                1.0,
                1.0,
                1.0
            ],
            "min": [
                -1.0,
                -1.0,
                -1.0
            ]
        },
        {
            "bufferView": 2,
            "byteOffset": 0,
            "componentType": 5126,
            "count": 105,
            "type": "VEC2",
            "max": [
                0.7699999809265137,
                0.9450000524520874
            ],
            "min": [
                0.17999997735023499,
                0.05500000715255737
            ]
        },
        {
            "bufferView": 3,
            "byteOffset": 0,
            "componentType": 5125,
            "count": 252,
            "type": "SCALAR",
            "max": [
                104.0
            ],
            "min": [
                0.0
            ]
        },
        {
            "bufferView": 4,
            "byteOffset": 0,
            "componentType": 5126,
            "count": 270,
            "type": "VEC3",
            "max": [
                1.0,
                1.0,
                1.0
            ],
            "min": [
                -1.0,
                -1.0,
                -1.0
            ]
        },
        {
            "bufferView": 5,
            "byteOffset": 0,
            "componentType": 5126,
            "count": 270,
            "type": "VEC3",
            "max": [
                1.0,
                1.0,
                1.0
            ],
            "min": [
                -1.0,
                -1.0,
                -1.0
            ]
        },
        {
            "bufferView": 6,
            "byteOffset": 0,
            "componentType": 5126,
            "count": 270,
            "type": "VEC2",
            "max": [
                0.875,
                1.0
            ],
            "min": [
                0.125,
                0.0
            ]
        },
        {
            "bufferView": 7,
            "byteOffset": 0,
            "componentType": 5125,
            "count": 1278,
            "type": "SCALAR",
            "max": [
                269.0
            ],
            "min": [
                0.0
            ]
        },
        {
            "bufferView": 8,
            "byteOffset": 0,
            "componentType": 5126,
            "count": 4,
            "type": "VEC3",
            "max": [
                1.0,
                0.0,
                1.0
            ],
            "min": [
                -1.0,
                0.0,
                -1.0
            ]
        },
        {
            "bufferView": 9,
            "byteOffset": 0,
            "componentType": 5126,
            "count": 4,
            "type": "VEC3",
            "max": [
                0.0,
                1.0,
                -0.0
            ],
            "min": [
                0.0,
                1.0,
                -0.0
            ]
        },
        {
            "bufferView": 10,
            "byteOffset": 0,
            "componentType": 5126,
            "count": 4,
            "type": "VEC2",
            "max": [
                1.0,
                1.0
            ],
            "min": [
                0.0,
                0.0
            ]
        },
        {
            "bufferView": 11,
            "byteOffset": 0,
            "componentType": 5125,
            "count": 6,
            "type": "SCALAR",
            "max": [
                3.0
            ],
            "min": [
                0.0
            ]
        },
        {
            "bufferView": 12,
            "byteOffset": 0,
            "componentType": 5126,
            "count": 270,
            "type": "VEC3",
            "max": [
                1.0,
                1.0,
                1.0
            ],
            "min": [
                -1.0,
                -1.0,
                -1.0
            ]
        },
        {
            "bufferView": 13,
            "byteOffset": 0,
            "componentType": 5126,
            "count": 270,
            "type": "VEC3",
            "max": [
                1.0,
                1.0,
                1.0
            ],
            "min": [
                -1.0,
                -1.0,
                -1.0
            ]
        },
        {
            "bufferView": 14,
            "byteOffset": 0,
            "componentType": 5126,
            "count": 270,
            "type": "VEC2",
            "max": [
                0.875,
                1.0
            ],
            "min": [
                0.125,
                0.0
            ]
        },
        {
            "bufferView": 15,
            "byteOffset": 0,
            "componentType": 5125,
            "count": 1278,
            "type": "SCALAR",
            "max": [
                269.0
            ],
            "min": [
                0.0
            ]
        },
        {
            "bufferView": 16,
            "byteOffset": 0,
            "componentType": 5126,
            "count": 105,
            "type": "VEC3",
            "max": [
                1.0,
                1.0,
                1.0
            ],
            "min": [
                -1.0,
                -1.0,
                -1.0
            ]
        },
        {
            "bufferView": 17,
            "byteOffset": 0,
            "componentType": 5126,
            "count": 105,
            "type": "VEC3",
            "max": [
                1.0,
                1.0,
                1.0
            ],
            "min": [
                -1.0,
                -1.0,
                -1.0
            ]
        },
        {
            "bufferView": 18,
            "byteOffset": 0,
            "componentType": 5126,
            "count": 105,
            "type": "VEC2",
            "max": [
                0.7699999809265137,
                0.9450000524520874
            ],
            "min": [
                0.17999997735023499,
                0.05500000715255737
            ]
        },
        {
            "bufferView": 19,
            "byteOffset": 0,
            "componentType": 5125,
            "count": 252,
            "type": "SCALAR",
            "max": [
                104.0
            ],
            "min": [
                0.0
            ]
        },
        {
            "bufferView": 20,
            "byteOffset": 0,
            "componentType": 5126,
            "count": 270,
            "type": "VEC3",
            "max": [
                1.0,
                1.0,
                1.0
            ],
            "min": [
                -1.0,
                -1.0,
                -1.0
            ]
        },
        {
            "bufferView": 21,
            "byteOffset": 0,
            "componentType": 5126,
            "count": 270,
            "type": "VEC3",
            "max": [
                1.0,
                1.0,
                1.0
            ],
            "min": [
                -1.0,
                -1.0,
                -1.0
            ]
        },
        {
            "bufferView": 22,
            "byteOffset": 0,
            "componentType": 5126,
            "count": 270,
            "type": "VEC2",
            "max": [
                0.875,
                1.0
            ],
            "min": [
                0.125,
                0.0
            ]
        },
        {
            "bufferView": 23,
            "byteOffset": 0,
            "componentType": 5125,
            "count": 1278,
            "type": "SCALAR",
            "max": [
                269.0
            ],
            "min": [
                0.0
            ]
        },
        {
            "bufferView": 24,
            "byteOffset": 0,
            "componentType": 5126,
            "count": 105,
            "type": "VEC3",
            "max": [
                1.0,
                1.0,
                1.0
            ],
            "min": [
                -1.0,
                -1.0,
                -1.0
            ]
        },
        {
            "bufferView": 25,
            "byteOffset": 0,
            "componentType": 5126,
            "count": 105,
            "type": "VEC3",
            "max": [
                1.0,
                1.0,
                1.0
            ],
            "min": [
                -1.0,
                -1.0,
                -1.0
            ]
        },
        {
            "bufferView": 26,
            "byteOffset": 0,
            "componentType": 5126,
            "count": 105,
            "type": "VEC2",
            "max": [
                0.7699999809265137,
                0.9450000524520874
            ],
            "min": [
                0.17999997735023499,
                0.05500000715255737
            ]
        },
        {
            "bufferView": 27,
            "byteOffset": 0,
            "componentType": 5125,
            "count": 252,
            "type": "SCALAR",
            "max": [
                104.0
            ],
            "min": [
                0.0
            ]
        }
    ],
    "buffers": [
        {
            "byteLength": 54512,
            "uri": "dice.bin"
        }
    ],
    "bufferViews": [
        {
            "buffer": 0,
            "byteOffset": 0,
            "byteLength": 1260,
            "target": 34962
        },
        {
            "buffer": 0,
            "byteOffset": 1260,
            "byteLength": 1260,
            "target": 34962
        },
        {
            "buffer": 0,
            "byteOffset": 2520,
            "byteLength": 840,
            "target": 34962
        },
        {
            "buffer": 0,
            "byteOffset": 3360,
            "byteLength": 1008,
            "target": 34963
        },
        {
            "buffer": 0,
            "byteOffset": 4368,
            "byteLength": 3240,
            "target": 34962
        },
        {
            "buffer": 0,
            "byteOffset": 7608,
            "byteLength": 3240,
            "target": 34962
        },
        {
            "buffer": 0,
            "byteOffset": 10848,
            "byteLength": 2160,
            "target": 34962
        },
        {
            "buffer": 0,
            "byteOffset": 13008,
            "byteLength": 5112,
            "target": 34963
        },
        {
            "buffer": 0,
            "byteOffset": 18120,
            "byteLength": 48,
            "target": 34962
        },
        {
            "buffer": 0,
            "byteOffset": 18168,
            "byteLength": 48,
            "target": 34962
        },
        {
            "buffer": 0,
            "byteOffset": 18216,
            "byteLength": 32,
            "target": 34962
        },
        {
            "buffer": 0,
            "byteOffset": 18248,
            "byteLength": 24,
            "target": 34963
        },
        {
            "buffer": 0,
            "byteOffset": 18272,
            "byteLength": 3240,
            "target": 34962
        },
        {
            "buffer": 0,
            "byteOffset": 21512,
            "byteLength": 3240,
            "target": 34962
        },
        {
            "buffer": 0,
            "byteOffset": 24752,
            "byteLength": 2160,
            "target": 34962
        },
        {
            "buffer": 0,
            "byteOffset": 26912,
            "byteLength": 5112,
            "target": 34963
        },
        {
            "buffer": 0,
            "byteOffset": 32024,
            "byteLength": 1260,
            "target": 34962
        },
        {
            "buffer": 0,
            "byteOffset": 33284,
            "byteLength": 1260,
            "target": 34962
        },
        {
            "buffer": 0,
            "byteOffset": 34544,
            "byteLength": 840,
            "target": 34962
        },
        {
            "buffer": 0,
            "byteOffset": 35384,
            "byteLength": 1008,
            "target": 34963
        },
        {
            "buffer": 0,
            "byteOffset": 36392,
            "byteLength": 3240,
            "target": 34962
        },
        {
            "buffer": 0,
            "byteOffset": 39632,
            "byteLength": 3240,
            "target": 34962
        },
        {
            "buffer": 0,
            "byteOffset": 42872,
            "byteLength": 2160,
            "target": 34962
        },
        {
            "buffer": 0,
            "byteOffset": 45032,
            "byteLength": 5112,
            "target": 34963
        },
        {
            "buffer": 0,
            "byteOffset": 50144,
            "byteLength": 1260,
            "target": 34962
        },
        {
            "buffer": 0,
            "byteOffset": 51404,
            "byteLength": 1260,
            "target": 34962
        },
        {
            "buffer": 0,
            "byteOffset": 52664,
            "byteLength": 840,
            "target": 34962
        },
        {
            "buffer": 0,
            "byteOffset": 53504,
            "byteLength": 1008,
            "target": 34963
        }
    ],
    "materials": [
        {
            "name": "Black",
            "pbrMetallicRoughness": {
                "baseColorFactor": [
                    0.0,
                    0.0,
                    0.0,
                    1.0
                ],
                "metallicFactor": 0.0,
                "roughnessFactor": 0.15000000596046449
            },
            "doubleSided": true
        },
        {
            "name": "White No subsurf",
            "pbrMetallicRoughness": {
                "baseColorFactor": [
                    0.800000011920929,
                    0.800000011920929,
                    0.800000011920929,
                    1.0
                ],
                "metallicFactor": 0.0,
                "roughnessFactor": 0.15000000596046449
            },
            "doubleSided": true
        },
        {
            "name": "Plane",
            "pbrMetallicRoughness": {
                "baseColorFactor": [
                    0.14934171736240388,
                    0.09527317434549332,
                    0.16793635487556458,
                    1.0
                ],
                "metallicFactor": 0.0,
                "roughnessFactor": 0.0882352888584137
            },
            "doubleSided": true
        },
        {
            "name": "Red",
            "pbrMetallicRoughness": {
                "baseColorFactor": [
                    0.43854326009750368,
                    0.0,
                    0.0,
                    1.0
                ],
                "metallicFactor": 0.0,
                "roughnessFactor": 0.15000000596046449
            },
            "doubleSided": true
        },
        {
            "name": "White",
            "pbrMetallicRoughness": {
                "baseColorFactor": [
                    0.800000011920929,
                    0.800000011920929,
                    0.800000011920929,
                    1.0
                ],
                "metallicFactor": 0.0,
                "roughnessFactor": 0.15000000596046449
            },
            "doubleSided": true
        },
        {
            "name": "Blue",
            "pbrMetallicRoughness": {
                "baseColorFactor": [
                    0.020983636379241945,
                    0.17503364384174348,
                    0.43854326009750368,
                    1.0
                ],
                "metallicFactor": 0.0,
                "roughnessFactor": 0.15000000596046449
            },
            "doubleSided": true
        },
        {
            "name": "material"
        }
    ],
    "meshes": [
        {
            "name": "Cube-0",
            "primitives": [
                {
                    "mode": 4,
                    "material": 0,
                    "indices": 3,
                    "attributes": {
                        "POSITION": 0,
                        "NORMAL": 1,
                        "TEXCOORD_0": 2
                    }
                },
                {
                    "mode": 4,
                    "material": 1,
                    "indices": 7,
                    "attributes": {
                        "POSITION": 4,
                        "NORMAL": 5,
                        "TEXCOORD_0": 6
                    }
                }
            ]
        },
        {
            "name": "Plane",
            "primitives": [
                {
                    "mode": 4,
                    "material": 2,
                    "indices": 11,
                    "attributes": {
                        "POSITION": 8,
                        "NORMAL": 9,
                        "TEXCOORD_0": 10
                    }
                }
            ]
        },
        {
            "name": "Cube.001-0",
            "primitives": [
                {
                    "mode": 4,
                    "material": 3,
                    "indices": 15,
                    "attributes": {
                        "POSITION": 12,
                        "NORMAL": 13,
                        "TEXCOORD_0": 14
                    }
                },
                {
                    "mode": 4,
                    "material": 4,
                    "indices": 19,
                    "attributes": {
                        "POSITION": 16,
                        "NORMAL": 17,
                        "TEXCOORD_0": 18
                    }
                }
            ]
        },
        {
            "name": "Cube.002-0",
            "primitives": [
                {
                    "mode": 4,
                    "material": 5,
                    "indices": 23,
                    "attributes": {
                        "POSITION": 20,
                        "NORMAL": 21,
                        "TEXCOORD_0": 22
                    }
                },
                {
                    "mode": 4,
                    "material": 4,
                    "indices": 27,
                    "attributes": {
                        "POSITION": 24,
                        "NORMAL": 25,
                        "TEXCOORD_0": 26
                    }
                }
            ]
        }
    ],
    "nodes": [
        {
            "name": "ROOT",
            "children": [
                1,
                2,
                3,
                4,
                5,
                6
            ]
        },
        {
            "name": "Cube",
            "matrix": [
                1.0,
                0.0,
                0.0,
                0.0,
                0.0,
                -1.1920928955078126e-7,
                -1.0000001192092896,
                0.0,
                0.0,
                1.0000001192092896,
                -1.1920928955078126e-7,
                0.0,
                0.0,
                0.0,
                0.0,
                1.0
            ],
            "mesh": 0
        },
        {
            "name": "Camera",
            "matrix": [
                0.8079070448875427,
                -8.940696716308594e-8,
                0.5893099904060364,
                0.0,
                -0.505979061126709,
                0.5126529932022095,
                0.6936656832695007,
                0.0,
                -0.30211156606674197,
                -0.8585959076881409,
                0.4141758680343628,
                0.0,
                -6.289710998535156,
                5.701564788818359,
                7.7965192794799809,
                1.0
            ]
        },
        {
            "name": "Sun",
            "matrix": [
                -0.5089432001113892,
                0.7545843124389648,
                -0.41422218084335329,
                0.0,
                0.4113104045391083,
                0.6358956098556519,
                0.6530396342277527,
                0.0,
                0.7561754584312439,
                0.16198600828647614,
                -0.6340031623840332,
                0.0,
                4.203907012939453,
                6.147536754608154,
                8.143245697021485,
                1.0
            ]
        },
        {
            "name": "Plane",
            "matrix": [
                28.810684204101564,
                0.0,
                0.0,
                0.0,
                0.0,
                28.810684204101564,
                0.0,
                0.0,
                0.0,
                0.0,
                28.810684204101564,
                0.0,
                0.0,
                -1.0002537965774537,
                0.0,
                1.0
            ],
            "mesh": 1
        },
        {
            "name": "Cube.001",
            "matrix": [
                5.960464477539063e-8,
                2.9802322387695315e-8,
                1.0,
                0.0,
                -1.0,
                0.0,
                2.9802322387695315e-8,
                0.0,
                2.9802322387695315e-8,
                -1.0,
                5.960464477539063e-8,
                0.0,
                -2.311840295791626,
                0.0,
                0.0,
                1.0
            ],
            "mesh": 2
        },
        {
            "name": "Cube.002",
            "matrix": [
                -1.1920928955078126e-7,
                -1.0000001192092896,
                1.6292071336465598e-7,
                0.0,
                -1.0000001192092896,
                -1.1920928955078126e-7,
                1.6292071336465598e-7,
                0.0,
                -1.6292071336465598e-7,
                -1.6292071336465598e-7,
                -1.000000238418579,
                0.0,
                2.311840295791626,
                0.0,
                0.0,
                1.0
            ],
            "mesh": 3
        }
    ],
    "scenes": [
        {
            "nodes": [
                0
            ]
        }
    ],
    "scene": 0
}
