{
    "asset": {
        "version": "2.0",
        "generator": "Open Asset Import Library (assimp v5.0.0)"
    },
    "accessors": [
        {
            "bufferView": 0,
            "byteOffset": 0,
            "componentType": 5126,
            "count": 9370,
            "type": "VEC3",
            "max": [
                11.691350936889649,
                39.861549377441409,
                2.5462725162506105
            ],
            "min": [
                -123.12325286865235,
                -22.718463897705079,
                -2.5462288856506349
            ]
        },
        {
            "bufferView": 1,
            "byteOffset": 0,
            "componentType": 5126,
            "count": 9370,
            "type": "VEC3",
            "max": [
                1.0,
                1.0,
                1.0
            ],
            "min": [
                -1.0,
                -1.0,
                -1.0
            ]
        },
        {
            "bufferView": 2,
            "byteOffset": 0,
            "componentType": 5126,
            "count": 9370,
            "type": "VEC2",
            "max": [
                1.0000001192092896,
                1.0
            ],
            "min": [
                0.0,
                0.0
            ]
        },
        {
            "bufferView": 3,
            "byteOffset": 0,
            "componentType": 5125,
            "count": 23904,
            "type": "SCALAR",
            "max": [
                5379.0
            ],
            "min": [
                0.0
            ]
        }
    ],
    "buffers": [
        {
            "byteLength": 395456,
            "uri": "gate.bin"
        }
    ],
    "bufferViews": [
        {
            "buffer": 0,
            "byteOffset": 0,
            "byteLength": 112440,
            "target": 34962
        },
        {
            "buffer": 0,
            "byteOffset": 112440,
            "byteLength": 112440,
            "target": 34962
        },
        {
            "buffer": 0,
            "byteOffset": 224880,
            "byteLength": 74960,
            "target": 34962
        },
        {
            "buffer": 0,
            "byteOffset": 299840,
            "byteLength": 95616,
            "target": 34963
        }
    ],
    "materials": [
        {
            "name": "Material.001",
            "pbrMetallicRoughness": {
                "baseColorFactor": [
                    0.049548983573913577,
                    0.049548983573913577,
                    0.049548983573913577,
                    1.0
                ],
                "roughnessFactor": 0.029411762952804567
            },
            "doubleSided": true
        },
        {
            "name": "material"
        }
    ],
    "meshes": [
        {
            "name": "Cone.025",
            "primitives": [
                {
                    "mode": 4,
                    "material": 0,
                    "indices": 3,
                    "attributes": {
                        "POSITION": 0,
                        "NORMAL": 1,
                        "TEXCOORD_0": 2
                    }
                }
            ]
        }
    ],
    "nodes": [
        {
            "name": "Cone.001",
            "matrix": [
                -0.03435323387384415,
                -3.158079334608828e-15,
                0.0,
                0.0,
                3.158079334608828e-15,
                -0.03435323387384415,
                0.0,
                0.0,
                0.0,
                0.0,
                0.03435323387384415,
                0.0,
                -2.0577688217163088,
                0.3468334376811981,
                0.0,
                1.0
            ],
            "mesh": 0
        }
    ],
    "scenes": [
        {
            "nodes": [
                0
            ]
        }
    ],
    "scene": 0
}
