{
    "asset": {
        "version": "2.0",
        "generator": "Open Asset Import Library (assimp v5.0.0)"
    },
    "accessors": [
        {
            "bufferView": 0,
            "byteOffset": 0,
            "componentType": 5126,
            "count": 138246,
            "type": "VEC3",
            "max": [
                3.609358549118042,
                3.7365527153015138,
                3.60675311088562
            ],
            "min": [
                -3.609358549118042,
                -3.736555814743042,
                -3.606753349304199
            ]
        },
        {
            "bufferView": 1,
            "byteOffset": 0,
            "componentType": 5126,
            "count": 138246,
            "type": "VEC3",
            "max": [
                0.9999788999557495,
                1.0,
                0.9998975992202759
            ],
            "min": [
                -0.9999788999557495,
                -1.0,
                -0.9998975992202759
            ]
        },
        {
            "bufferView": 2,
            "byteOffset": 0,
            "componentType": 5126,
            "count": 138246,
            "type": "VEC2",
            "max": [
                1.0,
                1.0
            ],
            "min": [
                0.0,
                5.960464477539063e-8
            ]
        },
        {
            "bufferView": 3,
            "byteOffset": 0,
            "componentType": 5125,
            "count": 442752,
            "type": "SCALAR",
            "max": [
                65535.0
            ],
            "min": [
                0.0
            ]
        },
        {
            "bufferView": 4,
            "byteOffset": 0,
            "componentType": 5126,
            "count": 759,
            "type": "VEC3",
            "max": [
                0.3030630052089691,
                3.808060646057129,
                3.808060646057129
            ],
            "min": [
                -0.32141876220703127,
                -3.808060646057129,
                -3.808060646057129
            ]
        },
        {
            "bufferView": 5,
            "byteOffset": 0,
            "componentType": 5126,
            "count": 759,
            "type": "VEC3",
            "max": [
                1.0,
                1.0,
                1.0
            ],
            "min": [
                -1.0,
                -1.0,
                -1.0
            ]
        },
        {
            "bufferView": 6,
            "byteOffset": 0,
            "componentType": 5126,
            "count": 759,
            "type": "VEC2",
            "max": [
                1.0,
                1.3214187622070313
            ],
            "min": [
                0.0,
                0.6969369649887085
            ]
        },
        {
            "bufferView": 7,
            "byteOffset": 0,
            "componentType": 5125,
            "count": 4416,
            "type": "SCALAR",
            "max": [
                528.0
            ],
            "min": [
                0.0
            ]
        },
        {
            "bufferView": 8,
            "byteOffset": 0,
            "componentType": 5126,
            "count": 104,
            "type": "VEC3",
            "max": [
                0.2905157208442688,
                -0.794043779373169,
                0.861347496509552
            ],
            "min": [
                -0.2905232906341553,
                -1.3750827312469483,
                0.5463913679122925
            ]
        },
        {
            "bufferView": 9,
            "byteOffset": 0,
            "componentType": 5126,
            "count": 104,
            "type": "VEC3",
            "max": [
                0.8207153677940369,
                0.7278809547424316,
                0.7270512580871582
            ],
            "min": [
                -0.8207153677940369,
                -0.7285758256912231,
                -0.6857142448425293
            ]
        },
        {
            "bufferView": 10,
            "byteOffset": 0,
            "componentType": 5126,
            "count": 104,
            "type": "VEC2",
            "max": [
                1.0087066888809205,
                0.9999042749404907
            ],
            "min": [
                -0.007632404565811157,
                -0.00024700164794921875
            ]
        },
        {
            "bufferView": 11,
            "byteOffset": 0,
            "componentType": 5125,
            "count": 396,
            "type": "SCALAR",
            "max": [
                63.0
            ],
            "min": [
                0.0
            ]
        },
        {
            "bufferView": 12,
            "byteOffset": 0,
            "componentType": 5126,
            "count": 559,
            "type": "VEC3",
            "max": [
                1.000000238418579,
                1.0,
                1.0000003576278687
            ],
            "min": [
                -0.9999998211860657,
                -1.0,
                -1.0
            ]
        },
        {
            "bufferView": 13,
            "byteOffset": 0,
            "componentType": 5126,
            "count": 559,
            "type": "VEC3",
            "max": [
                1.0,
                1.0,
                1.0
            ],
            "min": [
                -1.0,
                -1.0,
                -1.0
            ]
        },
        {
            "bufferView": 14,
            "byteOffset": 0,
            "componentType": 5126,
            "count": 559,
            "type": "VEC2",
            "max": [
                1.000000238418579,
                1.0
            ],
            "min": [
                0.0,
                0.0
            ]
        },
        {
            "bufferView": 15,
            "byteOffset": 0,
            "componentType": 5125,
            "count": 2880,
            "type": "SCALAR",
            "max": [
                286.0
            ],
            "min": [
                0.0
            ]
        },
        {
            "bufferView": 16,
            "byteOffset": 0,
            "componentType": 5126,
            "count": 1381,
            "type": "VEC3",
            "max": [
                1.0,
                1.2945446968078614,
                1.0
            ],
            "min": [
                -1.0,
                -5.299414157867432,
                -1.0
            ]
        },
        {
            "bufferView": 17,
            "byteOffset": 0,
            "componentType": 5126,
            "count": 1381,
            "type": "VEC3",
            "max": [
                0.998359739780426,
                0.7281027436256409,
                0.998359739780426
            ],
            "min": [
                -0.998359739780426,
                -1.0,
                -0.998359739780426
            ]
        },
        {
            "bufferView": 18,
            "byteOffset": 0,
            "componentType": 5126,
            "count": 1381,
            "type": "VEC2",
            "max": [
                1.0,
                1.0
            ],
            "min": [
                0.0,
                5.960464477539063e-8
            ]
        },
        {
            "bufferView": 19,
            "byteOffset": 0,
            "componentType": 5125,
            "count": 4152,
            "type": "SCALAR",
            "max": [
                744.0
            ],
            "min": [
                0.0
            ]
        },
        {
            "bufferView": 20,
            "byteOffset": 0,
            "componentType": 5126,
            "count": 197,
            "type": "VEC3",
            "max": [
                1.0605837106704713,
                1.4910509586334229,
                1.0605837106704713
            ],
            "min": [
                -1.0605835914611817,
                1.2945446968078614,
                -1.0605837106704713
            ]
        },
        {
            "bufferView": 21,
            "byteOffset": 0,
            "componentType": 5126,
            "count": 197,
            "type": "VEC3",
            "max": [
                0.9558753371238709,
                0.6857142448425293,
                0.9558753371238709
            ],
            "min": [
                -0.9558753371238709,
                -0.6232691407203674,
                -0.9558753371238709
            ]
        },
        {
            "bufferView": 22,
            "byteOffset": 0,
            "componentType": 5126,
            "count": 197,
            "type": "VEC2",
            "max": [
                0.991828978061676,
                1.0
            ],
            "min": [
                0.07325377315282822,
                0.008403360843658448
            ]
        },
        {
            "bufferView": 23,
            "byteOffset": 0,
            "componentType": 5125,
            "count": 666,
            "type": "SCALAR",
            "max": [
                119.0
            ],
            "min": [
                0.0
            ]
        },
        {
            "bufferView": 24,
            "byteOffset": 0,
            "componentType": 5126,
            "count": 559,
            "type": "VEC3",
            "max": [
                1.000000238418579,
                1.0,
                1.0000003576278687
            ],
            "min": [
                -0.9999998211860657,
                -1.0,
                -1.0
            ]
        },
        {
            "bufferView": 25,
            "byteOffset": 0,
            "componentType": 5126,
            "count": 559,
            "type": "VEC3",
            "max": [
                1.0,
                1.0,
                1.0
            ],
            "min": [
                -1.0,
                -1.0,
                -1.0
            ]
        },
        {
            "bufferView": 26,
            "byteOffset": 0,
            "componentType": 5126,
            "count": 559,
            "type": "VEC2",
            "max": [
                1.000000238418579,
                1.0
            ],
            "min": [
                0.0,
                0.0
            ]
        },
        {
            "bufferView": 27,
            "byteOffset": 0,
            "componentType": 5125,
            "count": 2880,
            "type": "SCALAR",
            "max": [
                286.0
            ],
            "min": [
                0.0
            ]
        }
    ],
    "buffers": [
        {
            "byteLength": 6370328,
            "uri": "microphone.bin"
        }
    ],
    "bufferViews": [
        {
            "buffer": 0,
            "byteOffset": 0,
            "byteLength": 1658952,
            "target": 34962
        },
        {
            "buffer": 0,
            "byteOffset": 1658952,
            "byteLength": 1658952,
            "target": 34962
        },
        {
            "buffer": 0,
            "byteOffset": 3317904,
            "byteLength": 1105968,
            "target": 34962
        },
        {
            "buffer": 0,
            "byteOffset": 4423872,
            "byteLength": 1771008,
            "target": 34963
        },
        {
            "buffer": 0,
            "byteOffset": 6194880,
            "byteLength": 9108,
            "target": 34962
        },
        {
            "buffer": 0,
            "byteOffset": 6203988,
            "byteLength": 9108,
            "target": 34962
        },
        {
            "buffer": 0,
            "byteOffset": 6213096,
            "byteLength": 6072,
            "target": 34962
        },
        {
            "buffer": 0,
            "byteOffset": 6219168,
            "byteLength": 17664,
            "target": 34963
        },
        {
            "buffer": 0,
            "byteOffset": 6236832,
            "byteLength": 1248,
            "target": 34962
        },
        {
            "buffer": 0,
            "byteOffset": 6238080,
            "byteLength": 1248,
            "target": 34962
        },
        {
            "buffer": 0,
            "byteOffset": 6239328,
            "byteLength": 832,
            "target": 34962
        },
        {
            "buffer": 0,
            "byteOffset": 6240160,
            "byteLength": 1584,
            "target": 34963
        },
        {
            "buffer": 0,
            "byteOffset": 6241744,
            "byteLength": 6708,
            "target": 34962
        },
        {
            "buffer": 0,
            "byteOffset": 6248452,
            "byteLength": 6708,
            "target": 34962
        },
        {
            "buffer": 0,
            "byteOffset": 6255160,
            "byteLength": 4472,
            "target": 34962
        },
        {
            "buffer": 0,
            "byteOffset": 6259632,
            "byteLength": 11520,
            "target": 34963
        },
        {
            "buffer": 0,
            "byteOffset": 6271152,
            "byteLength": 16572,
            "target": 34962
        },
        {
            "buffer": 0,
            "byteOffset": 6287724,
            "byteLength": 16572,
            "target": 34962
        },
        {
            "buffer": 0,
            "byteOffset": 6304296,
            "byteLength": 11048,
            "target": 34962
        },
        {
            "buffer": 0,
            "byteOffset": 6315344,
            "byteLength": 16608,
            "target": 34963
        },
        {
            "buffer": 0,
            "byteOffset": 6331952,
            "byteLength": 2364,
            "target": 34962
        },
        {
            "buffer": 0,
            "byteOffset": 6334316,
            "byteLength": 2364,
            "target": 34962
        },
        {
            "buffer": 0,
            "byteOffset": 6336680,
            "byteLength": 1576,
            "target": 34962
        },
        {
            "buffer": 0,
            "byteOffset": 6338256,
            "byteLength": 2664,
            "target": 34963
        },
        {
            "buffer": 0,
            "byteOffset": 6340920,
            "byteLength": 6708,
            "target": 34962
        },
        {
            "buffer": 0,
            "byteOffset": 6347628,
            "byteLength": 6708,
            "target": 34962
        },
        {
            "buffer": 0,
            "byteOffset": 6354336,
            "byteLength": 4472,
            "target": 34962
        },
        {
            "buffer": 0,
            "byteOffset": 6358808,
            "byteLength": 11520,
            "target": 34963
        }
    ],
    "images": [
        {
            "uri": "data:image/jpeg;base64,"
        },
        {
            "uri": "data:image/png;base64,"
        },
        {
            "uri": "data:image/png;base64,"
        },
        {
            "uri": "data:image/png;base64,"
        }
    ],
    "materials": [
        {
            "name": "sphere",
            "pbrMetallicRoughness": {
                "baseColorFactor": [
                    0.27279341220855715,
                    0.27279341220855715,
                    0.27279341220855715,
                    1.0
                ],
                "metallicFactor": 0.4000000059604645,
                "roughnessFactor": 0.0
            },
            "doubleSided": true
        },
        {
            "name": "sphere.001",
            "pbrMetallicRoughness": {
                "baseColorFactor": [
                    0.27279341220855715,
                    0.27279341220855715,
                    0.27279341220855715,
                    1.0
                ],
                "metallicFactor": 0.699999988079071,
                "roughnessFactor": 0.019999999552965165
            },
            "doubleSided": true
        },
        {
            "name": "body.001",
            "pbrMetallicRoughness": {
                "baseColorTexture": {
                    "index": 0
                },
                "metallicRoughnessTexture": {
                    "index": 1
                }
            },
            "normalTexture": {
                "index": 2
            },
            "doubleSided": true
        },
        {
            "name": "body",
            "pbrMetallicRoughness": {
                "baseColorTexture": {
                    "index": 3
                },
                "metallicRoughnessTexture": {
                    "index": 1
                }
            },
            "normalTexture": {
                "index": 2
            },
            "doubleSided": true
        },
        {
            "name": "light",
            "emissiveFactor": [
                1.0,
                0.5684242248535156,
                0.012506179511547089
            ],
            "doubleSided": true
        },
        {
            "name": "material"
        }
    ],
    "meshes": [
        {
            "name": "duplicat2",
            "primitives": [
                {
                    "mode": 4,
                    "material": 0,
                    "indices": 3,
                    "attributes": {
                        "POSITION": 0,
                        "NORMAL": 1,
                        "TEXCOORD_0": 2
                    }
                }
            ]
        },
        {
            "name": "Plane",
            "primitives": [
                {
                    "mode": 4,
                    "material": 1,
                    "indices": 7,
                    "attributes": {
                        "POSITION": 4,
                        "NORMAL": 5,
                        "TEXCOORD_0": 6
                    }
                }
            ]
        },
        {
            "name": "Cylinder.002",
            "primitives": [
                {
                    "mode": 4,
                    "material": 2,
                    "indices": 11,
                    "attributes": {
                        "POSITION": 8,
                        "NORMAL": 9,
                        "TEXCOORD_0": 10
                    }
                }
            ]
        },
        {
            "name": "Sphere.001",
            "primitives": [
                {
                    "mode": 4,
                    "material": 3,
                    "indices": 15,
                    "attributes": {
                        "POSITION": 12,
                        "NORMAL": 13,
                        "TEXCOORD_0": 14
                    }
                }
            ]
        },
        {
            "name": "Cylinder-0",
            "primitives": [
                {
                    "mode": 4,
                    "material": 3,
                    "indices": 19,
                    "attributes": {
                        "POSITION": 16,
                        "NORMAL": 17,
                        "TEXCOORD_0": 18
                    }
                },
                {
                    "mode": 4,
                    "material": 0,
                    "indices": 23,
                    "attributes": {
                        "POSITION": 20,
                        "NORMAL": 21,
                        "TEXCOORD_0": 22
                    }
                }
            ]
        },
        {
            "name": "Sphere",
            "primitives": [
                {
                    "mode": 4,
                    "material": 4,
                    "indices": 27,
                    "attributes": {
                        "POSITION": 24,
                        "NORMAL": 25,
                        "TEXCOORD_0": 26
                    }
                }
            ]
        }
    ],
    "nodes": [
        {
            "name": "ROOT",
            "children": [
                1,
                2,
                3,
                4,
                5,
                6
            ]
        },
        {
            "name": "duplicat2",
            "matrix": [
                0.01043209433555603,
                0.0,
                0.0,
                0.0,
                0.0,
                0.01043209433555603,
                0.0,
                0.0,
                0.0,
                0.0,
                0.01043209433555603,
                0.0,
                0.0,
                0.23000718653202058,
                0.0,
                1.0
            ],
            "mesh": 0
        },
        {
            "name": "Plane",
            "matrix": [
                6.218012771341819e-10,
                -0.01043209433555603,
                0.0,
                0.0,
                0.01043209433555603,
                6.218012771341819e-10,
                0.0,
                0.0,
                0.0,
                0.0,
                0.01043209433555603,
                0.0,
                0.0,
                0.23012177646160127,
                0.0,
                1.0
            ],
            "mesh": 1
        },
        {
            "name": "Cylinder",
            "matrix": [
                0.030651656910777093,
                0.0,
                0.0,
                0.0,
                0.0,
                0.030651656910777093,
                0.0,
                0.0,
                0.0,
                0.0,
                0.030651656910777093,
                0.0,
                0.0,
                0.16239985823631288,
                0.0,
                1.0
            ],
            "mesh": 2
        },
        {
            "name": "Sphere.001",
            "matrix": [
                0.03584494814276695,
                0.0,
                0.0,
                0.0,
                0.0,
                0.03584494814276695,
                0.0,
                0.0,
                0.0,
                0.0,
                0.03584494814276695,
                0.0,
                0.0,
                0.23000718653202058,
                0.0,
                1.0
            ],
            "mesh": 3
        },
        {
            "name": "Cylinder.002",
            "matrix": [
                0.030651656910777093,
                0.0,
                0.0,
                0.0,
                0.0,
                0.030651656910777093,
                0.0,
                0.0,
                0.0,
                0.0,
                0.030651656910777093,
                0.0,
                0.0,
                0.16239985823631288,
                0.0,
                1.0
            ],
            "mesh": 4
        },
        {
            "name": "Sphere",
            "matrix": [
                -0.002171593252569437,
                0.0,
                0.0,
                0.0,
                0.0,
                9.901077180352047e-11,
                -0.0008305624942295253,
                0.0,
                0.0,
                0.0021715930197387935,
                2.5887408883207288e-10,
                0.0,
                0.0,
                0.1454406976699829,
                0.026331916451454164,
                1.0
            ],
            "mesh": 5
        }
    ],
    "samplers": [
        {
            "magFilter": 9729,
            "minFilter": 9986
        },
        {},
        {},
        {}
    ],
    "scenes": [
        {
            "nodes": [
                0
            ]
        }
    ],
    "textures": [
        {
            "source": 0,
            "sampler": 0
        },
        {
            "source": 1,
            "sampler": 1
        },
        {
            "source": 2,
            "sampler": 2
        },
        {
            "source": 3,
            "sampler": 3
        }
    ],
    "scene": 0
}
