{
    "asset": {
        "version": "2.0",
        "generator": "Open Asset Import Library (assimp v5.0.0)"
    },
    "accessors": [
        {
            "bufferView": 0,
            "byteOffset": 0,
            "componentType": 5126,
            "count": 96107,
            "type": "VEC3",
            "max": [
                0.9398393034934998,
                11.691442489624024,
                0.9570515751838684
            ],
            "min": [
                -0.9494085311889648,
                -11.729681968688965,
                -0.9537226557731628
            ]
        },
        {
            "bufferView": 1,
            "byteOffset": 0,
            "componentType": 5126,
            "count": 96107,
            "type": "VEC3",
            "max": [
                0.9999998807907105,
                0.9990973472595215,
                0.999998927116394
            ],
            "min": [
                -0.9999995231628418,
                -0.999503493309021,
                -0.9999959468841553
            ]
        },
        {
            "bufferView": 2,
            "byteOffset": 0,
            "componentType": 5126,
            "count": 96107,
            "type": "VEC2",
            "max": [
                0.8750002384185791,
                1.0
            ],
            "min": [
                0.125,
                -2.384185791015625e-7
            ]
        },
        {
            "bufferView": 3,
            "byteOffset": 0,
            "componentType": 5125,
            "count": 569088,
            "type": "SCALAR",
            "max": [
                54401.0
            ],
            "min": [
                0.0
            ]
        }
    ],
    "buffers": [
        {
            "byteLength": 5351776,
            "uri": "pillow.bin"
        }
    ],
    "bufferViews": [
        {
            "buffer": 0,
            "byteOffset": 0,
            "byteLength": 1153284,
            "target": 34962
        },
        {
            "buffer": 0,
            "byteOffset": 1153284,
            "byteLength": 1153284,
            "target": 34962
        },
        {
            "buffer": 0,
            "byteOffset": 2306568,
            "byteLength": 768856,
            "target": 34962
        },
        {
            "buffer": 0,
            "byteOffset": 3075424,
            "byteLength": 2276352,
            "target": 34963
        }
    ],
    "images": [
        {
            "uri": "data:image/jpeg;base64,"
        }
    ],
    "materials": [
        {
            "name": "Material.003",
            "pbrMetallicRoughness": {
                "baseColorTexture": {
                    "index": 0
                },
                "metallicFactor": 0.0
            },
            "doubleSided": true
        },
        {
            "name": "material"
        }
    ],
    "meshes": [
        {
            "name": "Cube.016",
            "primitives": [
                {
                    "mode": 4,
                    "material": 0,
                    "indices": 3,
                    "attributes": {
                        "POSITION": 0,
                        "NORMAL": 1,
                        "TEXCOORD_0": 2
                    }
                }
            ]
        }
    ],
    "nodes": [
        {
            "name": "Pillow.003",
            "matrix": [
                -0.0028995880857110025,
                -0.5233370065689087,
                -4.593166380573166e-8,
                0.0,
                -0.017444565892219545,
                0.00009665397374192253,
                -1.5225958271969376e-9,
                0.0,
                5.7414577980807738e-8,
                5.70973455182866e-8,
                -0.6541813015937805,
                0.0,
                7.228175163269043,
                1.5664103031158448,
                -1.6390634775161744,
                1.0
            ],
            "mesh": 0
        }
    ],
    "samplers": [
        {
            "magFilter": 9729,
            "minFilter": 9987
        }
    ],
    "scenes": [
        {
            "nodes": [
                0
            ]
        }
    ],
    "textures": [
        {
            "source": 0,
            "sampler": 0
        }
    ],
    "scene": 0
}
