{
    "asset": {
        "version": "2.0",
        "generator": "Open Asset Import Library (assimp v5.0.0)"
    },
    "accessors": [
        {
            "bufferView": 0,
            "byteOffset": 0,
            "componentType": 5126,
            "count": 24515,
            "type": "VEC3",
            "max": [
                778.1047973632813,
                911.2371215820313,
                -65.51683044433594
            ],
            "min": [
                -1302.8519287109376,
                3.4715940952301027,
                -892.7399291992188
            ]
        },
        {
            "bufferView": 1,
            "byteOffset": 0,
            "componentType": 5126,
            "count": 24515,
            "type": "VEC3",
            "max": [
                0.9999992847442627,
                0.9999935030937195,
                0.9999739527702332
            ],
            "min": [
                -0.9999841451644898,
                -0.9999995231628418,
                -0.9999932646751404
            ]
        },
        {
            "bufferView": 2,
            "byteOffset": 0,
            "componentType": 5126,
            "count": 24515,
            "type": "VEC2",
            "max": [
                10.543974876403809,
                3.242976665496826
            ],
            "min": [
                -9.544733047485352,
                -2.1611878871917726
            ]
        },
        {
            "bufferView": 3,
            "byteOffset": 0,
            "componentType": 5125,
            "count": 103221,
            "type": "SCALAR",
            "max": [
                13484.0
            ],
            "min": [
                0.0
            ]
        },
        {
            "bufferView": 4,
            "byteOffset": 0,
            "componentType": 5126,
            "count": 18915,
            "type": "VEC3",
            "max": [
                1015.490966796875,
                911.2371215820313,
                -65.51689910888672
            ],
            "min": [
                -1302.8519287109376,
                17.684864044189454,
                -892.7399291992188
            ]
        },
        {
            "bufferView": 5,
            "byteOffset": 0,
            "componentType": 5126,
            "count": 18915,
            "type": "VEC3",
            "max": [
                1.0,
                0.9999985694885254,
                1.0
            ],
            "min": [
                -1.0,
                -0.9999995231628418,
                -0.9999976754188538
            ]
        },
        {
            "bufferView": 6,
            "byteOffset": 0,
            "componentType": 5126,
            "count": 18915,
            "type": "VEC2",
            "max": [
                10.528095245361329,
                3.2479372024536135
            ],
            "min": [
                -9.523516654968262,
                -2.1611878871917726
            ]
        },
        {
            "bufferView": 7,
            "byteOffset": 0,
            "componentType": 5125,
            "count": 82671,
            "type": "SCALAR",
            "max": [
                9192.0
            ],
            "min": [
                0.0
            ]
        },
        {
            "bufferView": 8,
            "byteOffset": 0,
            "componentType": 5126,
            "count": 875,
            "type": "VEC3",
            "max": [
                774.9954223632813,
                909.6923217773438,
                -100.27790832519531
            ],
            "min": [
                -1302.8519287109376,
                72.67630004882813,
                -891.3309326171875
            ]
        },
        {
            "bufferView": 9,
            "byteOffset": 0,
            "componentType": 5126,
            "count": 875,
            "type": "VEC3",
            "max": [
                0.999849259853363,
                0.9999068379402161,
                0.999890148639679
            ],
            "min": [
                -0.9998595118522644,
                -0.9995934963226318,
                -0.9999976754188538
            ]
        },
        {
            "bufferView": 10,
            "byteOffset": 0,
            "componentType": 5126,
            "count": 875,
            "type": "VEC2",
            "max": [
                10.501046180725098,
                3.221355676651001
            ],
            "min": [
                -9.509626388549805,
                -2.1007306575775148
            ]
        },
        {
            "bufferView": 11,
            "byteOffset": 0,
            "componentType": 5125,
            "count": 1464,
            "type": "SCALAR",
            "max": [
                439.0
            ],
            "min": [
                0.0
            ]
        }
    ],
    "buffers": [
        {
            "byteLength": 2167184,
            "uri": "sofa.bin"
        }
    ],
    "bufferViews": [
        {
            "buffer": 0,
            "byteOffset": 0,
            "byteLength": 294180,
            "target": 34962
        },
        {
            "buffer": 0,
            "byteOffset": 294180,
            "byteLength": 294180,
            "target": 34962
        },
        {
            "buffer": 0,
            "byteOffset": 588360,
            "byteLength": 196120,
            "target": 34962
        },
        {
            "buffer": 0,
            "byteOffset": 784480,
            "byteLength": 412884,
            "target": 34963
        },
        {
            "buffer": 0,
            "byteOffset": 1197364,
            "byteLength": 226980,
            "target": 34962
        },
        {
            "buffer": 0,
            "byteOffset": 1424344,
            "byteLength": 226980,
            "target": 34962
        },
        {
            "buffer": 0,
            "byteOffset": 1651324,
            "byteLength": 151320,
            "target": 34962
        },
        {
            "buffer": 0,
            "byteOffset": 1802644,
            "byteLength": 330684,
            "target": 34963
        },
        {
            "buffer": 0,
            "byteOffset": 2133328,
            "byteLength": 10500,
            "target": 34962
        },
        {
            "buffer": 0,
            "byteOffset": 2143828,
            "byteLength": 10500,
            "target": 34962
        },
        {
            "buffer": 0,
            "byteOffset": 2154328,
            "byteLength": 7000,
            "target": 34962
        },
        {
            "buffer": 0,
            "byteOffset": 2161328,
            "byteLength": 5856,
            "target": 34963
        }
    ],
    "images": [
        {
            "uri": "data:image/jpeg;base64,"
        }
    ],
    "materials": [
        {
            "name": "Material",
            "pbrMetallicRoughness": {
                "baseColorTexture": {
                    "index": 0
                },
                "metallicFactor": 0.0,
                "roughnessFactor": 0.5
            },
            "normalTexture": {
                "index": 0
            },
            "doubleSided": true
        },
        {
            "name": "material"
        }
    ],
    "meshes": [
        {
            "name": "Sofa_panda_01-0",
            "primitives": [
                {
                    "mode": 4,
                    "material": 0,
                    "indices": 3,
                    "attributes": {
                        "POSITION": 0,
                        "NORMAL": 1,
                        "TEXCOORD_0": 2
                    }
                },
                {
                    "mode": 4,
                    "material": 0,
                    "indices": 7,
                    "attributes": {
                        "POSITION": 4,
                        "NORMAL": 5,
                        "TEXCOORD_0": 6
                    }
                },
                {
                    "mode": 4,
                    "material": 0,
                    "indices": 11,
                    "attributes": {
                        "POSITION": 8,
                        "NORMAL": 9,
                        "TEXCOORD_0": 10
                    }
                }
            ]
        }
    ],
    "nodes": [
        {
            "name": "Sofa_panda_01",
            "matrix": [
                1.0,
                0.0,
                0.0,
                0.0,
                0.0,
                -1.1920928955078126e-7,
                0.9999999403953552,
                0.0,
                0.0,
                -0.9999999403953552,
                -1.1920928955078126e-7,
                0.0,
                0.0,
                0.0,
                0.0,
                1.0
            ],
            "mesh": 0
        }
    ],
    "samplers": [
        {}
    ],
    "scenes": [
        {
            "nodes": [
                0
            ]
        }
    ],
    "textures": [
        {
            "source": 0,
            "sampler": 0
        }
    ],
    "scene": 0
}
