{
    "asset": {
        "version": "2.0",
        "generator": "Open Asset Import Library (assimp v5.0.0)"
    },
    "accessors": [
        {
            "bufferView": 0,
            "byteOffset": 0,
            "componentType": 5126,
            "count": 16653,
            "type": "VEC3",
            "max": [
                1.1124296188354493,
                16.17767333984375,
                1.1711047887802125
            ],
            "min": [
                -1.1122957468032838,
                -0.17768684029579163,
                -1.1163384914398194
            ]
        },
        {
            "bufferView": 1,
            "byteOffset": 0,
            "componentType": 5126,
            "count": 16653,
            "type": "VEC3",
            "max": [
                0.980846107006073,
                0.9871492385864258,
                0.9999992847442627
            ],
            "min": [
                -0.9803639650344849,
                -0.9871485829353333,
                -0.9999992251396179
            ]
        },
        {
            "bufferView": 2,
            "byteOffset": 0,
            "componentType": 5126,
            "count": 16653,
            "type": "VEC2",
            "max": [
                1.0,
                1.0
            ],
            "min": [
                0.0,
                0.0
            ]
        },
        {
            "bufferView": 3,
            "byteOffset": 0,
            "componentType": 5125,
            "count": 92160,
            "type": "SCALAR",
            "max": [
                8332.0
            ],
            "min": [
                0.0
            ]
        }
    ],
    "buffers": [
        {
            "byteLength": 901536,
            "uri": "spring.bin"
        }
    ],
    "bufferViews": [
        {
            "buffer": 0,
            "byteOffset": 0,
            "byteLength": 199836,
            "target": 34962
        },
        {
            "buffer": 0,
            "byteOffset": 199836,
            "byteLength": 199836,
            "target": 34962
        },
        {
            "buffer": 0,
            "byteOffset": 399672,
            "byteLength": 133224,
            "target": 34962
        },
        {
            "buffer": 0,
            "byteOffset": 532896,
            "byteLength": 368640,
            "target": 34963
        }
    ],
    "materials": [
        {
            "name": "material"
        }
    ],
    "meshes": [
        {
            "name": "Circle",
            "primitives": [
                {
                    "mode": 4,
                    "material": 0,
                    "indices": 3,
                    "attributes": {
                        "POSITION": 0,
                        "NORMAL": 1,
                        "TEXCOORD_0": 2
                    }
                }
            ]
        }
    ],
    "nodes": [
        {
            "name": "Circle",
            "mesh": 0
        }
    ],
    "scenes": [
        {
            "nodes": [
                0
            ]
        }
    ],
    "scene": 0
}
